<svg xmlns="http://www.w3.org/2000/svg" version="1.1" xmlns:xlink="http://www.w3.org/1999/xlink" xmlns:svgjs="http://svgjs.dev/svgjs" width="2560" height="1440" preserveAspectRatio="none" viewBox="0 0 2560 1440"><g mask="url(&quot;#SvgjsMask3945&quot;)" fill="none"><rect width="2560" height="1440" x="0" y="0" fill="url(&quot;#SvgjsLinearGradient3946&quot;)"></rect><path d="M186.79 653.06L329.66 653.06L329.66 736.29L186.79 736.29z" stroke="rgba(216, 216, 216, 1)"></path><path d="M536.99 133.54L631.17 133.54L631.17 243.78L536.99 243.78z" fill="rgba(216, 216, 216, 1)"></path><path d="M-53.1 192.84 a138.59 138.59 0 1 0 277.18 0 a138.59 138.59 0 1 0 -277.18 0z" stroke="rgba(216, 216, 216, 1)"></path><path d="M2316.89 942.63L2428.44 942.63L2428.44 1054.18L2316.89 1054.18z" stroke="rgba(216, 216, 216, 1)"></path><path d="M1560.53 371.93a118.83 118.83 0 1 0-184.3 150.05z" fill="rgba(216, 216, 216, 1)"></path><path d="M1690.59 1375.77L1714.71 1375.77L1714.71 1399.89L1690.59 1399.89z" stroke="rgba(216, 216, 216, 1)"></path><path d="M2441.02 769.11a95.29 95.29 0 1 0 32.17 187.85z" fill="rgba(216, 216, 216, 1)"></path><path d="M905.49 1196.37a37.7 37.7 0 1 0 73.96-14.62z" fill="rgba(216, 216, 216, 1)"></path><path d="M130.83 229.43L186.92 229.43L186.92 337.84L130.83 337.84z" stroke="rgba(216, 216, 216, 1)"></path><path d="M593.49 411.84a71.65 71.65 0 1 0 130.1-60.06z" stroke="rgba(216, 216, 216, 1)"></path><path d="M133.02 58.98a16.41 16.41 0 1 0-13.88-29.74z" stroke="rgba(216, 216, 216, 1)"></path><path d="M2148.35 1199.18L2290.51 1199.18L2290.51 1309.04L2148.35 1309.04z" fill="rgba(216, 216, 216, 1)"></path><path d="M5.49 982.01 a57.51 57.51 0 1 0 115.02 0 a57.51 57.51 0 1 0 -115.02 0z" stroke="rgba(216, 216, 216, 1)"></path><path d="M435.25 159.96 a46.67 46.67 0 1 0 93.34 0 a46.67 46.67 0 1 0 -93.34 0z" stroke="rgba(216, 216, 216, 1)"></path><path d="M33.94 571.55a42.77 42.77 0 1 0 76.88-37.5z" stroke="rgba(216, 216, 216, 1)"></path><path d="M200.08 1208.57a120.93 120.93 0 1 0-7.54-241.74z" fill="rgba(216, 216, 216, 1)"></path><path d="M347.47 1101.85a131.91 131.91 0 1 0 217.74 148.98z" stroke="rgba(216, 216, 216, 1)"></path><path d="M1668.15 48.13L1699.47 48.13L1699.47 77.68L1668.15 77.68z" stroke="rgba(216, 216, 216, 1)"></path><path d="M2388.64 733.32L2459.08 733.32L2459.08 792.3L2388.64 792.3z" stroke="rgba(216, 216, 216, 1)"></path><path d="M1352.7 235.69L1377 235.69L1377 371.98L1352.7 371.98z" stroke="rgba(216, 216, 216, 1)"></path><path d="M558.08 906.46L613.8 906.46L613.8 987.19L558.08 987.19z" fill="rgba(216, 216, 216, 1)"></path><path d="M2421.9 732.02a136.04 136.04 0 1 0-115.48-246.36z" stroke="rgba(216, 216, 216, 1)"></path><path d="M773.65 343.16L901.64 343.16L901.64 371.26L773.65 371.26z" fill="rgba(216, 216, 216, 1)"></path></g><defs><mask id="SvgjsMask3945"><rect width="2560" height="1440" fill="#ffffff"></rect></mask><linearGradient x1="89.06%" y1="-19.44%" x2="10.94%" y2="119.44%" gradientUnits="userSpaceOnUse" id="SvgjsLinearGradient3946"><stop stop-color="rgba(167, 167, 167, 1)" offset="1"></stop><stop stop-color="rgba(52, 0, 0, 1)" offset="1"></stop></linearGradient></defs></svg>