<svg xmlns="http://www.w3.org/2000/svg" version="1.1" xmlns:xlink="http://www.w3.org/1999/xlink" xmlns:svgjs="http://svgjs.dev/svgjs" width="2560" height="1440" preserveAspectRatio="none" viewBox="0 0 2560 1440"><g mask="url(&quot;#SvgjsMask1037&quot;)" fill="none"><rect width="2560" height="1440" x="0" y="0" fill="rgba(255, 255, 255, 1)"></rect><path d="M44.99 641L109.94 678.5L109.94 753.5L44.99 791L-19.96 753.5L-19.96 678.5zM44.99 866L109.94 903.5L109.94 978.5L44.99 1016L-19.96 978.5L-19.96 903.5zM109.94 1428.5L174.9 1466L174.9 1541L109.94 1578.5L44.99 1541L44.99 1466zM174.9 -34L239.85 3.5L239.85 78.5L174.9 116L109.94 78.5L109.94 3.5zM239.85 303.5L304.81 341L304.81 416L239.85 453.5L174.9 416L174.9 341zM369.76 303.5L434.71 341L434.71 416L369.76 453.5L304.81 416L304.81 341zM499.67 528.5L564.62 566L564.62 641L499.67 678.5L434.71 641L434.71 566zM434.71 641L499.67 678.5L499.67 753.5L434.71 791L369.76 753.5L369.76 678.5zM499.67 753.5L564.62 791L564.62 866L499.67 903.5L434.71 866L434.71 791zM434.71 866L499.67 903.5L499.67 978.5L434.71 1016L369.76 978.5L369.76 903.5zM499.67 1428.5L564.62 1466L564.62 1541L499.67 1578.5L434.71 1541L434.71 1466zM694.53 416L759.48 453.5L759.48 528.5L694.53 566L629.57 528.5L629.57 453.5zM824.43 -34L889.39 3.5L889.39 78.5L824.43 116L759.48 78.5L759.48 3.5zM824.43 641L889.39 678.5L889.39 753.5L824.43 791L759.48 753.5L759.48 678.5zM1019.3 753.5L1084.25 791L1084.25 866L1019.3 903.5L954.34 866L954.34 791zM1019.3 978.5L1084.25 1016L1084.25 1091L1019.3 1128.5L954.34 1091L954.34 1016zM1084.25 -34L1149.2 3.5L1149.2 78.5L1084.25 116L1019.3 78.5L1019.3 3.5zM1279.11 528.5L1344.06 566L1344.06 641L1279.11 678.5L1214.16 641L1214.16 566zM1473.97 1091L1538.93 1128.5L1538.93 1203.5L1473.97 1241L1409.02 1203.5L1409.02 1128.5zM1538.93 1428.5L1603.88 1466L1603.88 1541L1538.93 1578.5L1473.97 1541L1473.97 1466zM1668.83 528.5L1733.79 566L1733.79 641L1668.83 678.5L1603.88 641L1603.88 566zM1603.88 641L1668.83 678.5L1668.83 753.5L1603.88 791L1538.93 753.5L1538.93 678.5zM1668.83 1203.5L1733.79 1241L1733.79 1316L1668.83 1353.5L1603.88 1316L1603.88 1241zM1733.79 191L1798.74 228.5L1798.74 303.5L1733.79 341L1668.83 303.5L1668.83 228.5zM1798.74 303.5L1863.69 341L1863.69 416L1798.74 453.5L1733.79 416L1733.79 341zM1733.79 641L1798.74 678.5L1798.74 753.5L1733.79 791L1668.83 753.5L1668.83 678.5zM1798.74 1203.5L1863.69 1241L1863.69 1316L1798.74 1353.5L1733.79 1316L1733.79 1241zM1863.69 641L1928.65 678.5L1928.65 753.5L1863.69 791L1798.74 753.5L1798.74 678.5zM2058.56 528.5L2123.51 566L2123.51 641L2058.56 678.5L1993.6 641L1993.6 566zM2058.56 753.5L2123.51 791L2123.51 866L2058.56 903.5L1993.6 866L1993.6 791zM2188.46 753.5L2253.42 791L2253.42 866L2188.46 903.5L2123.51 866L2123.51 791zM2188.46 1428.5L2253.42 1466L2253.42 1541L2188.46 1578.5L2123.51 1541L2123.51 1466zM2253.42 641L2318.37 678.5L2318.37 753.5L2253.42 791L2188.46 753.5L2188.46 678.5zM2383.32 -34L2448.28 3.5L2448.28 78.5L2383.32 116L2318.37 78.5L2318.37 3.5zM2383.32 191L2448.28 228.5L2448.28 303.5L2383.32 341L2318.37 303.5L2318.37 228.5zM2513.23 -34L2578.19 3.5L2578.19 78.5L2513.23 116L2448.28 78.5L2448.28 3.5zM2513.23 191L2578.19 228.5L2578.19 303.5L2513.23 341L2448.28 303.5L2448.28 228.5zM2513.23 1316L2578.19 1353.5L2578.19 1428.5L2513.23 1466L2448.28 1428.5L2448.28 1353.5z" stroke="rgba(0, 0, 0, 1)" stroke-width="2"></path><path d="M37.49 641 a7.5 7.5 0 1 0 15 0 a7.5 7.5 0 1 0 -15 0zM102.44 678.5 a7.5 7.5 0 1 0 15 0 a7.5 7.5 0 1 0 -15 0zM102.44 753.5 a7.5 7.5 0 1 0 15 0 a7.5 7.5 0 1 0 -15 0zM37.49 791 a7.5 7.5 0 1 0 15 0 a7.5 7.5 0 1 0 -15 0zM-27.46 753.5 a7.5 7.5 0 1 0 15 0 a7.5 7.5 0 1 0 -15 0zM-27.46 678.5 a7.5 7.5 0 1 0 15 0 a7.5 7.5 0 1 0 -15 0zM37.49 866 a7.5 7.5 0 1 0 15 0 a7.5 7.5 0 1 0 -15 0zM102.44 903.5 a7.5 7.5 0 1 0 15 0 a7.5 7.5 0 1 0 -15 0zM102.44 978.5 a7.5 7.5 0 1 0 15 0 a7.5 7.5 0 1 0 -15 0zM37.49 1016 a7.5 7.5 0 1 0 15 0 a7.5 7.5 0 1 0 -15 0zM-27.46 978.5 a7.5 7.5 0 1 0 15 0 a7.5 7.5 0 1 0 -15 0zM-27.46 903.5 a7.5 7.5 0 1 0 15 0 a7.5 7.5 0 1 0 -15 0zM102.44 1428.5 a7.5 7.5 0 1 0 15 0 a7.5 7.5 0 1 0 -15 0zM167.4 1466 a7.5 7.5 0 1 0 15 0 a7.5 7.5 0 1 0 -15 0zM167.4 1541 a7.5 7.5 0 1 0 15 0 a7.5 7.5 0 1 0 -15 0zM102.44 1578.5 a7.5 7.5 0 1 0 15 0 a7.5 7.5 0 1 0 -15 0zM37.49 1541 a7.5 7.5 0 1 0 15 0 a7.5 7.5 0 1 0 -15 0zM37.49 1466 a7.5 7.5 0 1 0 15 0 a7.5 7.5 0 1 0 -15 0zM167.4 -34 a7.5 7.5 0 1 0 15 0 a7.5 7.5 0 1 0 -15 0zM232.35 3.5 a7.5 7.5 0 1 0 15 0 a7.5 7.5 0 1 0 -15 0zM232.35 78.5 a7.5 7.5 0 1 0 15 0 a7.5 7.5 0 1 0 -15 0zM167.4 116 a7.5 7.5 0 1 0 15 0 a7.5 7.5 0 1 0 -15 0zM102.44 78.5 a7.5 7.5 0 1 0 15 0 a7.5 7.5 0 1 0 -15 0zM102.44 3.5 a7.5 7.5 0 1 0 15 0 a7.5 7.5 0 1 0 -15 0zM232.35 303.5 a7.5 7.5 0 1 0 15 0 a7.5 7.5 0 1 0 -15 0zM297.31 341 a7.5 7.5 0 1 0 15 0 a7.5 7.5 0 1 0 -15 0zM297.31 416 a7.5 7.5 0 1 0 15 0 a7.5 7.5 0 1 0 -15 0zM232.35 453.5 a7.5 7.5 0 1 0 15 0 a7.5 7.5 0 1 0 -15 0zM167.4 416 a7.5 7.5 0 1 0 15 0 a7.5 7.5 0 1 0 -15 0zM167.4 341 a7.5 7.5 0 1 0 15 0 a7.5 7.5 0 1 0 -15 0zM362.26 303.5 a7.5 7.5 0 1 0 15 0 a7.5 7.5 0 1 0 -15 0zM427.21 341 a7.5 7.5 0 1 0 15 0 a7.5 7.5 0 1 0 -15 0zM427.21 416 a7.5 7.5 0 1 0 15 0 a7.5 7.5 0 1 0 -15 0zM362.26 453.5 a7.5 7.5 0 1 0 15 0 a7.5 7.5 0 1 0 -15 0zM492.17 528.5 a7.5 7.5 0 1 0 15 0 a7.5 7.5 0 1 0 -15 0zM557.12 566 a7.5 7.5 0 1 0 15 0 a7.5 7.5 0 1 0 -15 0zM557.12 641 a7.5 7.5 0 1 0 15 0 a7.5 7.5 0 1 0 -15 0zM492.17 678.5 a7.5 7.5 0 1 0 15 0 a7.5 7.5 0 1 0 -15 0zM427.21 641 a7.5 7.5 0 1 0 15 0 a7.5 7.5 0 1 0 -15 0zM427.21 566 a7.5 7.5 0 1 0 15 0 a7.5 7.5 0 1 0 -15 0zM492.17 753.5 a7.5 7.5 0 1 0 15 0 a7.5 7.5 0 1 0 -15 0zM427.21 791 a7.5 7.5 0 1 0 15 0 a7.5 7.5 0 1 0 -15 0zM362.26 753.5 a7.5 7.5 0 1 0 15 0 a7.5 7.5 0 1 0 -15 0zM362.26 678.5 a7.5 7.5 0 1 0 15 0 a7.5 7.5 0 1 0 -15 0zM557.12 791 a7.5 7.5 0 1 0 15 0 a7.5 7.5 0 1 0 -15 0zM557.12 866 a7.5 7.5 0 1 0 15 0 a7.5 7.5 0 1 0 -15 0zM492.17 903.5 a7.5 7.5 0 1 0 15 0 a7.5 7.5 0 1 0 -15 0zM427.21 866 a7.5 7.5 0 1 0 15 0 a7.5 7.5 0 1 0 -15 0zM492.17 978.5 a7.5 7.5 0 1 0 15 0 a7.5 7.5 0 1 0 -15 0zM427.21 1016 a7.5 7.5 0 1 0 15 0 a7.5 7.5 0 1 0 -15 0zM362.26 978.5 a7.5 7.5 0 1 0 15 0 a7.5 7.5 0 1 0 -15 0zM362.26 903.5 a7.5 7.5 0 1 0 15 0 a7.5 7.5 0 1 0 -15 0zM492.17 1428.5 a7.5 7.5 0 1 0 15 0 a7.5 7.5 0 1 0 -15 0zM557.12 1466 a7.5 7.5 0 1 0 15 0 a7.5 7.5 0 1 0 -15 0zM557.12 1541 a7.5 7.5 0 1 0 15 0 a7.5 7.5 0 1 0 -15 0zM492.17 1578.5 a7.5 7.5 0 1 0 15 0 a7.5 7.5 0 1 0 -15 0zM427.21 1541 a7.5 7.5 0 1 0 15 0 a7.5 7.5 0 1 0 -15 0zM427.21 1466 a7.5 7.5 0 1 0 15 0 a7.5 7.5 0 1 0 -15 0zM687.03 416 a7.5 7.5 0 1 0 15 0 a7.5 7.5 0 1 0 -15 0zM751.98 453.5 a7.5 7.5 0 1 0 15 0 a7.5 7.5 0 1 0 -15 0zM751.98 528.5 a7.5 7.5 0 1 0 15 0 a7.5 7.5 0 1 0 -15 0zM687.03 566 a7.5 7.5 0 1 0 15 0 a7.5 7.5 0 1 0 -15 0zM622.07 528.5 a7.5 7.5 0 1 0 15 0 a7.5 7.5 0 1 0 -15 0zM622.07 453.5 a7.5 7.5 0 1 0 15 0 a7.5 7.5 0 1 0 -15 0zM816.93 -34 a7.5 7.5 0 1 0 15 0 a7.5 7.5 0 1 0 -15 0zM881.89 3.5 a7.5 7.5 0 1 0 15 0 a7.5 7.5 0 1 0 -15 0zM881.89 78.5 a7.5 7.5 0 1 0 15 0 a7.5 7.5 0 1 0 -15 0zM816.93 116 a7.5 7.5 0 1 0 15 0 a7.5 7.5 0 1 0 -15 0zM751.98 78.5 a7.5 7.5 0 1 0 15 0 a7.5 7.5 0 1 0 -15 0zM751.98 3.5 a7.5 7.5 0 1 0 15 0 a7.5 7.5 0 1 0 -15 0zM816.93 641 a7.5 7.5 0 1 0 15 0 a7.5 7.5 0 1 0 -15 0zM881.89 678.5 a7.5 7.5 0 1 0 15 0 a7.5 7.5 0 1 0 -15 0zM881.89 753.5 a7.5 7.5 0 1 0 15 0 a7.5 7.5 0 1 0 -15 0zM816.93 791 a7.5 7.5 0 1 0 15 0 a7.5 7.5 0 1 0 -15 0zM751.98 753.5 a7.5 7.5 0 1 0 15 0 a7.5 7.5 0 1 0 -15 0zM751.98 678.5 a7.5 7.5 0 1 0 15 0 a7.5 7.5 0 1 0 -15 0zM1011.8 753.5 a7.5 7.5 0 1 0 15 0 a7.5 7.5 0 1 0 -15 0zM1076.75 791 a7.5 7.5 0 1 0 15 0 a7.5 7.5 0 1 0 -15 0zM1076.75 866 a7.5 7.5 0 1 0 15 0 a7.5 7.5 0 1 0 -15 0zM1011.8 903.5 a7.5 7.5 0 1 0 15 0 a7.5 7.5 0 1 0 -15 0zM946.84 866 a7.5 7.5 0 1 0 15 0 a7.5 7.5 0 1 0 -15 0zM946.84 791 a7.5 7.5 0 1 0 15 0 a7.5 7.5 0 1 0 -15 0zM1011.8 978.5 a7.5 7.5 0 1 0 15 0 a7.5 7.5 0 1 0 -15 0zM1076.75 1016 a7.5 7.5 0 1 0 15 0 a7.5 7.5 0 1 0 -15 0zM1076.75 1091 a7.5 7.5 0 1 0 15 0 a7.5 7.5 0 1 0 -15 0zM1011.8 1128.5 a7.5 7.5 0 1 0 15 0 a7.5 7.5 0 1 0 -15 0zM946.84 1091 a7.5 7.5 0 1 0 15 0 a7.5 7.5 0 1 0 -15 0zM946.84 1016 a7.5 7.5 0 1 0 15 0 a7.5 7.5 0 1 0 -15 0zM1076.75 -34 a7.5 7.5 0 1 0 15 0 a7.5 7.5 0 1 0 -15 0zM1141.7 3.5 a7.5 7.5 0 1 0 15 0 a7.5 7.5 0 1 0 -15 0zM1141.7 78.5 a7.5 7.5 0 1 0 15 0 a7.5 7.5 0 1 0 -15 0zM1076.75 116 a7.5 7.5 0 1 0 15 0 a7.5 7.5 0 1 0 -15 0zM1011.8 78.5 a7.5 7.5 0 1 0 15 0 a7.5 7.5 0 1 0 -15 0zM1011.8 3.5 a7.5 7.5 0 1 0 15 0 a7.5 7.5 0 1 0 -15 0zM1271.61 528.5 a7.5 7.5 0 1 0 15 0 a7.5 7.5 0 1 0 -15 0zM1336.56 566 a7.5 7.5 0 1 0 15 0 a7.5 7.5 0 1 0 -15 0zM1336.56 641 a7.5 7.5 0 1 0 15 0 a7.5 7.5 0 1 0 -15 0zM1271.61 678.5 a7.5 7.5 0 1 0 15 0 a7.5 7.5 0 1 0 -15 0zM1206.66 641 a7.5 7.5 0 1 0 15 0 a7.5 7.5 0 1 0 -15 0zM1206.66 566 a7.5 7.5 0 1 0 15 0 a7.5 7.5 0 1 0 -15 0zM1466.47 1091 a7.5 7.5 0 1 0 15 0 a7.5 7.5 0 1 0 -15 0zM1531.43 1128.5 a7.5 7.5 0 1 0 15 0 a7.5 7.5 0 1 0 -15 0zM1531.43 1203.5 a7.5 7.5 0 1 0 15 0 a7.5 7.5 0 1 0 -15 0zM1466.47 1241 a7.5 7.5 0 1 0 15 0 a7.5 7.5 0 1 0 -15 0zM1401.52 1203.5 a7.5 7.5 0 1 0 15 0 a7.5 7.5 0 1 0 -15 0zM1401.52 1128.5 a7.5 7.5 0 1 0 15 0 a7.5 7.5 0 1 0 -15 0zM1531.43 1428.5 a7.5 7.5 0 1 0 15 0 a7.5 7.5 0 1 0 -15 0zM1596.38 1466 a7.5 7.5 0 1 0 15 0 a7.5 7.5 0 1 0 -15 0zM1596.38 1541 a7.5 7.5 0 1 0 15 0 a7.5 7.5 0 1 0 -15 0zM1531.43 1578.5 a7.5 7.5 0 1 0 15 0 a7.5 7.5 0 1 0 -15 0zM1466.47 1541 a7.5 7.5 0 1 0 15 0 a7.5 7.5 0 1 0 -15 0zM1466.47 1466 a7.5 7.5 0 1 0 15 0 a7.5 7.5 0 1 0 -15 0zM1661.33 528.5 a7.5 7.5 0 1 0 15 0 a7.5 7.5 0 1 0 -15 0zM1726.29 566 a7.5 7.5 0 1 0 15 0 a7.5 7.5 0 1 0 -15 0zM1726.29 641 a7.5 7.5 0 1 0 15 0 a7.5 7.5 0 1 0 -15 0zM1661.33 678.5 a7.5 7.5 0 1 0 15 0 a7.5 7.5 0 1 0 -15 0zM1596.38 641 a7.5 7.5 0 1 0 15 0 a7.5 7.5 0 1 0 -15 0zM1596.38 566 a7.5 7.5 0 1 0 15 0 a7.5 7.5 0 1 0 -15 0zM1661.33 753.5 a7.5 7.5 0 1 0 15 0 a7.5 7.5 0 1 0 -15 0zM1596.38 791 a7.5 7.5 0 1 0 15 0 a7.5 7.5 0 1 0 -15 0zM1531.43 753.5 a7.5 7.5 0 1 0 15 0 a7.5 7.5 0 1 0 -15 0zM1531.43 678.5 a7.5 7.5 0 1 0 15 0 a7.5 7.5 0 1 0 -15 0zM1661.33 1203.5 a7.5 7.5 0 1 0 15 0 a7.5 7.5 0 1 0 -15 0zM1726.29 1241 a7.5 7.5 0 1 0 15 0 a7.5 7.5 0 1 0 -15 0zM1726.29 1316 a7.5 7.5 0 1 0 15 0 a7.5 7.5 0 1 0 -15 0zM1661.33 1353.5 a7.5 7.5 0 1 0 15 0 a7.5 7.5 0 1 0 -15 0zM1596.38 1316 a7.5 7.5 0 1 0 15 0 a7.5 7.5 0 1 0 -15 0zM1596.38 1241 a7.5 7.5 0 1 0 15 0 a7.5 7.5 0 1 0 -15 0zM1726.29 191 a7.5 7.5 0 1 0 15 0 a7.5 7.5 0 1 0 -15 0zM1791.24 228.5 a7.5 7.5 0 1 0 15 0 a7.5 7.5 0 1 0 -15 0zM1791.24 303.5 a7.5 7.5 0 1 0 15 0 a7.5 7.5 0 1 0 -15 0zM1726.29 341 a7.5 7.5 0 1 0 15 0 a7.5 7.5 0 1 0 -15 0zM1661.33 303.5 a7.5 7.5 0 1 0 15 0 a7.5 7.5 0 1 0 -15 0zM1661.33 228.5 a7.5 7.5 0 1 0 15 0 a7.5 7.5 0 1 0 -15 0zM1856.19 341 a7.5 7.5 0 1 0 15 0 a7.5 7.5 0 1 0 -15 0zM1856.19 416 a7.5 7.5 0 1 0 15 0 a7.5 7.5 0 1 0 -15 0zM1791.24 453.5 a7.5 7.5 0 1 0 15 0 a7.5 7.5 0 1 0 -15 0zM1726.29 416 a7.5 7.5 0 1 0 15 0 a7.5 7.5 0 1 0 -15 0zM1791.24 678.5 a7.5 7.5 0 1 0 15 0 a7.5 7.5 0 1 0 -15 0zM1791.24 753.5 a7.5 7.5 0 1 0 15 0 a7.5 7.5 0 1 0 -15 0zM1726.29 791 a7.5 7.5 0 1 0 15 0 a7.5 7.5 0 1 0 -15 0zM1791.24 1203.5 a7.5 7.5 0 1 0 15 0 a7.5 7.5 0 1 0 -15 0zM1856.19 1241 a7.5 7.5 0 1 0 15 0 a7.5 7.5 0 1 0 -15 0zM1856.19 1316 a7.5 7.5 0 1 0 15 0 a7.5 7.5 0 1 0 -15 0zM1791.24 1353.5 a7.5 7.5 0 1 0 15 0 a7.5 7.5 0 1 0 -15 0zM1856.19 641 a7.5 7.5 0 1 0 15 0 a7.5 7.5 0 1 0 -15 0zM1921.15 678.5 a7.5 7.5 0 1 0 15 0 a7.5 7.5 0 1 0 -15 0zM1921.15 753.5 a7.5 7.5 0 1 0 15 0 a7.5 7.5 0 1 0 -15 0zM1856.19 791 a7.5 7.5 0 1 0 15 0 a7.5 7.5 0 1 0 -15 0zM2051.06 528.5 a7.5 7.5 0 1 0 15 0 a7.5 7.5 0 1 0 -15 0zM2116.01 566 a7.5 7.5 0 1 0 15 0 a7.5 7.5 0 1 0 -15 0zM2116.01 641 a7.5 7.5 0 1 0 15 0 a7.5 7.5 0 1 0 -15 0zM2051.06 678.5 a7.5 7.5 0 1 0 15 0 a7.5 7.5 0 1 0 -15 0zM1986.1 641 a7.5 7.5 0 1 0 15 0 a7.5 7.5 0 1 0 -15 0zM1986.1 566 a7.5 7.5 0 1 0 15 0 a7.5 7.5 0 1 0 -15 0zM2051.06 753.5 a7.5 7.5 0 1 0 15 0 a7.5 7.5 0 1 0 -15 0zM2116.01 791 a7.5 7.5 0 1 0 15 0 a7.5 7.5 0 1 0 -15 0zM2116.01 866 a7.5 7.5 0 1 0 15 0 a7.5 7.5 0 1 0 -15 0zM2051.06 903.5 a7.5 7.5 0 1 0 15 0 a7.5 7.5 0 1 0 -15 0zM1986.1 866 a7.5 7.5 0 1 0 15 0 a7.5 7.5 0 1 0 -15 0zM1986.1 791 a7.5 7.5 0 1 0 15 0 a7.5 7.5 0 1 0 -15 0zM2180.96 753.5 a7.5 7.5 0 1 0 15 0 a7.5 7.5 0 1 0 -15 0zM2245.92 791 a7.5 7.5 0 1 0 15 0 a7.5 7.5 0 1 0 -15 0zM2245.92 866 a7.5 7.5 0 1 0 15 0 a7.5 7.5 0 1 0 -15 0zM2180.96 903.5 a7.5 7.5 0 1 0 15 0 a7.5 7.5 0 1 0 -15 0zM2180.96 1428.5 a7.5 7.5 0 1 0 15 0 a7.5 7.5 0 1 0 -15 0zM2245.92 1466 a7.5 7.5 0 1 0 15 0 a7.5 7.5 0 1 0 -15 0zM2245.92 1541 a7.5 7.5 0 1 0 15 0 a7.5 7.5 0 1 0 -15 0zM2180.96 1578.5 a7.5 7.5 0 1 0 15 0 a7.5 7.5 0 1 0 -15 0zM2116.01 1541 a7.5 7.5 0 1 0 15 0 a7.5 7.5 0 1 0 -15 0zM2116.01 1466 a7.5 7.5 0 1 0 15 0 a7.5 7.5 0 1 0 -15 0zM2245.92 641 a7.5 7.5 0 1 0 15 0 a7.5 7.5 0 1 0 -15 0zM2310.87 678.5 a7.5 7.5 0 1 0 15 0 a7.5 7.5 0 1 0 -15 0zM2310.87 753.5 a7.5 7.5 0 1 0 15 0 a7.5 7.5 0 1 0 -15 0zM2180.96 678.5 a7.5 7.5 0 1 0 15 0 a7.5 7.5 0 1 0 -15 0zM2375.82 -34 a7.5 7.5 0 1 0 15 0 a7.5 7.5 0 1 0 -15 0zM2440.78 3.5 a7.5 7.5 0 1 0 15 0 a7.5 7.5 0 1 0 -15 0zM2440.78 78.5 a7.5 7.5 0 1 0 15 0 a7.5 7.5 0 1 0 -15 0zM2375.82 116 a7.5 7.5 0 1 0 15 0 a7.5 7.5 0 1 0 -15 0zM2310.87 78.5 a7.5 7.5 0 1 0 15 0 a7.5 7.5 0 1 0 -15 0zM2310.87 3.5 a7.5 7.5 0 1 0 15 0 a7.5 7.5 0 1 0 -15 0zM2375.82 191 a7.5 7.5 0 1 0 15 0 a7.5 7.5 0 1 0 -15 0zM2440.78 228.5 a7.5 7.5 0 1 0 15 0 a7.5 7.5 0 1 0 -15 0zM2440.78 303.5 a7.5 7.5 0 1 0 15 0 a7.5 7.5 0 1 0 -15 0zM2375.82 341 a7.5 7.5 0 1 0 15 0 a7.5 7.5 0 1 0 -15 0zM2310.87 303.5 a7.5 7.5 0 1 0 15 0 a7.5 7.5 0 1 0 -15 0zM2310.87 228.5 a7.5 7.5 0 1 0 15 0 a7.5 7.5 0 1 0 -15 0zM2505.73 -34 a7.5 7.5 0 1 0 15 0 a7.5 7.5 0 1 0 -15 0zM2570.69 3.5 a7.5 7.5 0 1 0 15 0 a7.5 7.5 0 1 0 -15 0zM2570.69 78.5 a7.5 7.5 0 1 0 15 0 a7.5 7.5 0 1 0 -15 0zM2505.73 116 a7.5 7.5 0 1 0 15 0 a7.5 7.5 0 1 0 -15 0zM2505.73 191 a7.5 7.5 0 1 0 15 0 a7.5 7.5 0 1 0 -15 0zM2570.69 228.5 a7.5 7.5 0 1 0 15 0 a7.5 7.5 0 1 0 -15 0zM2570.69 303.5 a7.5 7.5 0 1 0 15 0 a7.5 7.5 0 1 0 -15 0zM2505.73 341 a7.5 7.5 0 1 0 15 0 a7.5 7.5 0 1 0 -15 0zM2505.73 1316 a7.5 7.5 0 1 0 15 0 a7.5 7.5 0 1 0 -15 0zM2570.69 1353.5 a7.5 7.5 0 1 0 15 0 a7.5 7.5 0 1 0 -15 0zM2570.69 1428.5 a7.5 7.5 0 1 0 15 0 a7.5 7.5 0 1 0 -15 0zM2505.73 1466 a7.5 7.5 0 1 0 15 0 a7.5 7.5 0 1 0 -15 0zM2440.78 1428.5 a7.5 7.5 0 1 0 15 0 a7.5 7.5 0 1 0 -15 0zM2440.78 1353.5 a7.5 7.5 0 1 0 15 0 a7.5 7.5 0 1 0 -15 0z" fill="rgba(0, 0, 0, 1)"></path><path d="M58.97 55.23L102.28 80.23L102.28 130.23L58.97 155.23L15.67 130.23L15.67 80.23zM58.97 205.23L102.28 230.23L102.28 280.23L58.97 305.23L15.67 280.23L15.67 230.23zM15.67 280.23L58.97 305.23L58.97 355.23L15.67 380.23L-27.63 355.23L-27.63 305.23zM15.67 430.23L58.97 455.23L58.97 505.23L15.67 530.23L-27.63 505.23L-27.63 455.23zM58.97 655.23L102.28 680.23L102.28 730.23L58.97 755.23L15.67 730.23L15.67 680.23zM15.67 1030.23L58.97 1055.23L58.97 1105.23L15.67 1130.23L-27.63 1105.23L-27.63 1055.23zM102.28 -19.77L145.58 5.23L145.58 55.23L102.28 80.23L58.97 55.23L58.97 5.23zM145.58 55.23L188.88 80.23L188.88 130.23L145.58 155.23L102.28 130.23L102.28 80.23zM145.58 505.23L188.88 530.23L188.88 580.23L145.58 605.23L102.28 580.23L102.28 530.23zM145.58 805.23L188.88 830.23L188.88 880.23L145.58 905.23L102.28 880.23L102.28 830.23zM102.28 1030.23L145.58 1055.23L145.58 1105.23L102.28 1130.23L58.97 1105.23L58.97 1055.23zM145.58 1105.23L188.88 1130.23L188.88 1180.23L145.58 1205.23L102.28 1180.23L102.28 1130.23zM145.58 1255.23L188.88 1280.23L188.88 1330.23L145.58 1355.23L102.28 1330.23L102.28 1280.23zM188.88 130.23L232.18 155.23L232.18 205.23L188.88 230.23L145.58 205.23L145.58 155.23zM232.18 205.23L275.49 230.23L275.49 280.23L232.18 305.23L188.88 280.23L188.88 230.23zM188.88 280.23L232.18 305.23L232.18 355.23L188.88 380.23L145.58 355.23L145.58 305.23zM232.18 355.23L275.49 380.23L275.49 430.23L232.18 455.23L188.88 430.23L188.88 380.23zM188.88 580.23L232.18 605.23L232.18 655.23L188.88 680.23L145.58 655.23L145.58 605.23zM232.18 805.23L275.49 830.23L275.49 880.23L232.18 905.23L188.88 880.23L188.88 830.23zM232.18 1405.23L275.49 1430.23L275.49 1480.23L232.18 1505.23L188.88 1480.23L188.88 1430.23zM275.49 1330.23L318.79 1355.23L318.79 1405.23L275.49 1430.23L232.18 1405.23L232.18 1355.23zM362.09 -19.77L405.39 5.23L405.39 55.23L362.09 80.23L318.79 55.23L318.79 5.23zM405.39 55.23L448.7 80.23L448.7 130.23L405.39 155.23L362.09 130.23L362.09 80.23zM405.39 805.23L448.7 830.23L448.7 880.23L405.39 905.23L362.09 880.23L362.09 830.23zM492 55.23L535.3 80.23L535.3 130.23L492 155.23L448.7 130.23L448.7 80.23zM448.7 280.23L492 305.23L492 355.23L448.7 380.23L405.39 355.23L405.39 305.23zM492 505.23L535.3 530.23L535.3 580.23L492 605.23L448.7 580.23L448.7 530.23zM448.7 880.23L492 905.23L492 955.23L448.7 980.23L405.39 955.23L405.39 905.23zM492 1105.23L535.3 1130.23L535.3 1180.23L492 1205.23L448.7 1180.23L448.7 1130.23zM448.7 1180.23L492 1205.23L492 1255.23L448.7 1280.23L405.39 1255.23L405.39 1205.23zM535.3 130.23L578.6 155.23L578.6 205.23L535.3 230.23L492 205.23L492 155.23zM578.6 205.23L621.9 230.23L621.9 280.23L578.6 305.23L535.3 280.23L535.3 230.23zM578.6 355.23L621.9 380.23L621.9 430.23L578.6 455.23L535.3 430.23L535.3 380.23zM535.3 580.23L578.6 605.23L578.6 655.23L535.3 680.23L492 655.23L492 605.23zM578.6 805.23L621.9 830.23L621.9 880.23L578.6 905.23L535.3 880.23L535.3 830.23zM621.9 -19.77L665.21 5.23L665.21 55.23L621.9 80.23L578.6 55.23L578.6 5.23zM621.9 580.23L665.21 605.23L665.21 655.23L621.9 680.23L578.6 655.23L578.6 605.23zM665.21 805.23L708.51 830.23L708.51 880.23L665.21 905.23L621.9 880.23L621.9 830.23zM621.9 880.23L665.21 905.23L665.21 955.23L621.9 980.23L578.6 955.23L578.6 905.23zM621.9 1330.23L665.21 1355.23L665.21 1405.23L621.9 1430.23L578.6 1405.23L578.6 1355.23zM751.81 505.23L795.12 530.23L795.12 580.23L751.81 605.23L708.51 580.23L708.51 530.23zM751.81 1255.23L795.12 1280.23L795.12 1330.23L751.81 1355.23L708.51 1330.23L708.51 1280.23zM838.42 355.23L881.72 380.23L881.72 430.23L838.42 455.23L795.12 430.23L795.12 380.23zM795.12 730.23L838.42 755.23L838.42 805.23L795.12 830.23L751.81 805.23L751.81 755.23zM838.42 955.23L881.72 980.23L881.72 1030.23L838.42 1055.23L795.12 1030.23L795.12 980.23zM838.42 1105.23L881.72 1130.23L881.72 1180.23L838.42 1205.23L795.12 1180.23L795.12 1130.23zM795.12 1180.23L838.42 1205.23L838.42 1255.23L795.12 1280.23L751.81 1255.23L751.81 1205.23zM925.02 55.23L968.33 80.23L968.33 130.23L925.02 155.23L881.72 130.23L881.72 80.23zM925.02 505.23L968.33 530.23L968.33 580.23L925.02 605.23L881.72 580.23L881.72 530.23zM925.02 955.23L968.33 980.23L968.33 1030.23L925.02 1055.23L881.72 1030.23L881.72 980.23zM968.33 130.23L1011.63 155.23L1011.63 205.23L968.33 230.23L925.02 205.23L925.02 155.23zM968.33 280.23L1011.63 305.23L1011.63 355.23L968.33 380.23L925.02 355.23L925.02 305.23zM968.33 1030.23L1011.63 1055.23L1011.63 1105.23L968.33 1130.23L925.02 1105.23L925.02 1055.23zM1011.63 1255.23L1054.93 1280.23L1054.93 1330.23L1011.63 1355.23L968.33 1330.23L968.33 1280.23zM968.33 1330.23L1011.63 1355.23L1011.63 1405.23L968.33 1430.23L925.02 1405.23L925.02 1355.23zM1011.63 1405.23L1054.93 1430.23L1054.93 1480.23L1011.63 1505.23L968.33 1480.23L968.33 1430.23zM1054.93 430.23L1098.23 455.23L1098.23 505.23L1054.93 530.23L1011.63 505.23L1011.63 455.23zM1054.93 580.23L1098.23 605.23L1098.23 655.23L1054.93 680.23L1011.63 655.23L1011.63 605.23zM1141.54 -19.77L1184.84 5.23L1184.84 55.23L1141.54 80.23L1098.23 55.23L1098.23 5.23zM1141.54 130.23L1184.84 155.23L1184.84 205.23L1141.54 230.23L1098.23 205.23L1098.23 155.23zM1141.54 280.23L1184.84 305.23L1184.84 355.23L1141.54 380.23L1098.23 355.23L1098.23 305.23zM1184.84 655.23L1228.14 680.23L1228.14 730.23L1184.84 755.23L1141.54 730.23L1141.54 680.23zM1184.84 805.23L1228.14 830.23L1228.14 880.23L1184.84 905.23L1141.54 880.23L1141.54 830.23zM1184.84 1105.23L1228.14 1130.23L1228.14 1180.23L1184.84 1205.23L1141.54 1180.23L1141.54 1130.23zM1228.14 130.23L1271.44 155.23L1271.44 205.23L1228.14 230.23L1184.84 205.23L1184.84 155.23zM1271.44 205.23L1314.75 230.23L1314.75 280.23L1271.44 305.23L1228.14 280.23L1228.14 230.23zM1271.44 355.23L1314.75 380.23L1314.75 430.23L1271.44 455.23L1228.14 430.23L1228.14 380.23zM1271.44 505.23L1314.75 530.23L1314.75 580.23L1271.44 605.23L1228.14 580.23L1228.14 530.23zM1228.14 730.23L1271.44 755.23L1271.44 805.23L1228.14 830.23L1184.84 805.23L1184.84 755.23zM1271.44 1255.23L1314.75 1280.23L1314.75 1330.23L1271.44 1355.23L1228.14 1330.23L1228.14 1280.23zM1228.14 1330.23L1271.44 1355.23L1271.44 1405.23L1228.14 1430.23L1184.84 1405.23L1184.84 1355.23zM1314.75 -19.77L1358.05 5.23L1358.05 55.23L1314.75 80.23L1271.44 55.23L1271.44 5.23zM1358.05 205.23L1401.35 230.23L1401.35 280.23L1358.05 305.23L1314.75 280.23L1314.75 230.23zM1314.75 430.23L1358.05 455.23L1358.05 505.23L1314.75 530.23L1271.44 505.23L1271.44 455.23zM1314.75 580.23L1358.05 605.23L1358.05 655.23L1314.75 680.23L1271.44 655.23L1271.44 605.23zM1358.05 1255.23L1401.35 1280.23L1401.35 1330.23L1358.05 1355.23L1314.75 1330.23L1314.75 1280.23zM1358.05 1405.23L1401.35 1430.23L1401.35 1480.23L1358.05 1505.23L1314.75 1480.23L1314.75 1430.23zM1401.35 730.23L1444.65 755.23L1444.65 805.23L1401.35 830.23L1358.05 805.23L1358.05 755.23zM1401.35 880.23L1444.65 905.23L1444.65 955.23L1401.35 980.23L1358.05 955.23L1358.05 905.23zM1444.65 955.23L1487.96 980.23L1487.96 1030.23L1444.65 1055.23L1401.35 1030.23L1401.35 980.23zM1401.35 1180.23L1444.65 1205.23L1444.65 1255.23L1401.35 1280.23L1358.05 1255.23L1358.05 1205.23zM1531.26 55.23L1574.56 80.23L1574.56 130.23L1531.26 155.23L1487.96 130.23L1487.96 80.23zM1487.96 280.23L1531.26 305.23L1531.26 355.23L1487.96 380.23L1444.65 355.23L1444.65 305.23zM1531.26 505.23L1574.56 530.23L1574.56 580.23L1531.26 605.23L1487.96 580.23L1487.96 530.23zM1531.26 805.23L1574.56 830.23L1574.56 880.23L1531.26 905.23L1487.96 880.23L1487.96 830.23zM1487.96 880.23L1531.26 905.23L1531.26 955.23L1487.96 980.23L1444.65 955.23L1444.65 905.23zM1531.26 1105.23L1574.56 1130.23L1574.56 1180.23L1531.26 1205.23L1487.96 1180.23L1487.96 1130.23zM1574.56 280.23L1617.86 305.23L1617.86 355.23L1574.56 380.23L1531.26 355.23L1531.26 305.23zM1617.86 805.23L1661.17 830.23L1661.17 880.23L1617.86 905.23L1574.56 880.23L1574.56 830.23zM1574.56 1180.23L1617.86 1205.23L1617.86 1255.23L1574.56 1280.23L1531.26 1255.23L1531.26 1205.23zM1617.86 1255.23L1661.17 1280.23L1661.17 1330.23L1617.86 1355.23L1574.56 1330.23L1574.56 1280.23zM1617.86 1405.23L1661.17 1430.23L1661.17 1480.23L1617.86 1505.23L1574.56 1480.23L1574.56 1430.23zM1704.47 505.23L1747.77 530.23L1747.77 580.23L1704.47 605.23L1661.17 580.23L1661.17 530.23zM1661.17 1030.23L1704.47 1055.23L1704.47 1105.23L1661.17 1130.23L1617.86 1105.23L1617.86 1055.23zM1661.17 1180.23L1704.47 1205.23L1704.47 1255.23L1661.17 1280.23L1617.86 1255.23L1617.86 1205.23zM1661.17 1330.23L1704.47 1355.23L1704.47 1405.23L1661.17 1430.23L1617.86 1405.23L1617.86 1355.23zM1791.07 55.23L1834.38 80.23L1834.38 130.23L1791.07 155.23L1747.77 130.23L1747.77 80.23zM1747.77 430.23L1791.07 455.23L1791.07 505.23L1747.77 530.23L1704.47 505.23L1704.47 455.23zM1791.07 505.23L1834.38 530.23L1834.38 580.23L1791.07 605.23L1747.77 580.23L1747.77 530.23zM1791.07 1105.23L1834.38 1130.23L1834.38 1180.23L1791.07 1205.23L1747.77 1180.23L1747.77 1130.23zM1791.07 1255.23L1834.38 1280.23L1834.38 1330.23L1791.07 1355.23L1747.77 1330.23L1747.77 1280.23zM1834.38 280.23L1877.68 305.23L1877.68 355.23L1834.38 380.23L1791.07 355.23L1791.07 305.23zM1877.68 1105.23L1920.98 1130.23L1920.98 1180.23L1877.68 1205.23L1834.38 1180.23L1834.38 1130.23zM1877.68 1255.23L1920.98 1280.23L1920.98 1330.23L1877.68 1355.23L1834.38 1330.23L1834.38 1280.23zM1834.38 1330.23L1877.68 1355.23L1877.68 1405.23L1834.38 1430.23L1791.07 1405.23L1791.07 1355.23zM1920.98 130.23L1964.28 155.23L1964.28 205.23L1920.98 230.23L1877.68 205.23L1877.68 155.23zM1964.28 655.23L2007.59 680.23L2007.59 730.23L1964.28 755.23L1920.98 730.23L1920.98 680.23zM1920.98 730.23L1964.28 755.23L1964.28 805.23L1920.98 830.23L1877.68 805.23L1877.68 755.23zM1964.28 805.23L2007.59 830.23L2007.59 880.23L1964.28 905.23L1920.98 880.23L1920.98 830.23zM2007.59 -19.77L2050.89 5.23L2050.89 55.23L2007.59 80.23L1964.28 55.23L1964.28 5.23zM2050.89 55.23L2094.19 80.23L2094.19 130.23L2050.89 155.23L2007.59 130.23L2007.59 80.23zM2050.89 205.23L2094.19 230.23L2094.19 280.23L2050.89 305.23L2007.59 280.23L2007.59 230.23zM2050.89 355.23L2094.19 380.23L2094.19 430.23L2050.89 455.23L2007.59 430.23L2007.59 380.23zM2007.59 730.23L2050.89 755.23L2050.89 805.23L2007.59 830.23L1964.28 805.23L1964.28 755.23zM2050.89 805.23L2094.19 830.23L2094.19 880.23L2050.89 905.23L2007.59 880.23L2007.59 830.23zM2050.89 955.23L2094.19 980.23L2094.19 1030.23L2050.89 1055.23L2007.59 1030.23L2007.59 980.23zM2050.89 1255.23L2094.19 1280.23L2094.19 1330.23L2050.89 1355.23L2007.59 1330.23L2007.59 1280.23zM2137.49 55.23L2180.79 80.23L2180.79 130.23L2137.49 155.23L2094.19 130.23L2094.19 80.23zM2137.49 205.23L2180.79 230.23L2180.79 280.23L2137.49 305.23L2094.19 280.23L2094.19 230.23zM2137.49 505.23L2180.79 530.23L2180.79 580.23L2137.49 605.23L2094.19 580.23L2094.19 530.23zM2137.49 655.23L2180.79 680.23L2180.79 730.23L2137.49 755.23L2094.19 730.23L2094.19 680.23zM2137.49 1105.23L2180.79 1130.23L2180.79 1180.23L2137.49 1205.23L2094.19 1180.23L2094.19 1130.23zM2180.8 130.23L2224.1 155.23L2224.1 205.23L2180.8 230.23L2137.49 205.23L2137.49 155.23zM2180.8 280.23L2224.1 305.23L2224.1 355.23L2180.8 380.23L2137.49 355.23L2137.49 305.23zM2224.1 355.23L2267.4 380.23L2267.4 430.23L2224.1 455.23L2180.8 430.23L2180.8 380.23zM2180.8 880.23L2224.1 905.23L2224.1 955.23L2180.8 980.23L2137.49 955.23L2137.49 905.23zM2310.7 205.23L2354 230.23L2354 280.23L2310.7 305.23L2267.4 280.23L2267.4 230.23zM2267.4 280.23L2310.7 305.23L2310.7 355.23L2267.4 380.23L2224.1 355.23L2224.1 305.23zM2310.7 655.23L2354 680.23L2354 730.23L2310.7 755.23L2267.4 730.23L2267.4 680.23zM2397.31 655.23L2440.61 680.23L2440.61 730.23L2397.31 755.23L2354.01 730.23L2354.01 680.23zM2440.61 430.23L2483.91 455.23L2483.91 505.23L2440.61 530.23L2397.31 505.23L2397.31 455.23zM2483.91 655.23L2527.21 680.23L2527.21 730.23L2483.91 755.23L2440.61 730.23L2440.61 680.23zM2440.61 730.23L2483.91 755.23L2483.91 805.23L2440.61 830.23L2397.31 805.23L2397.31 755.23zM2440.61 1180.23L2483.91 1205.23L2483.91 1255.23L2440.61 1280.23L2397.31 1255.23L2397.31 1205.23zM2483.91 1255.23L2527.21 1280.23L2527.21 1330.23L2483.91 1355.23L2440.61 1330.23L2440.61 1280.23zM2483.91 1405.23L2527.21 1430.23L2527.21 1480.23L2483.91 1505.23L2440.61 1480.23L2440.61 1430.23zM2527.22 430.23L2570.52 455.23L2570.52 505.23L2527.22 530.23L2483.91 505.23L2483.91 455.23zM2527.22 730.23L2570.52 755.23L2570.52 805.23L2527.22 830.23L2483.91 805.23L2483.91 755.23zM2570.52 955.23L2613.82 980.23L2613.82 1030.23L2570.52 1055.23L2527.22 1030.23L2527.22 980.23zM2527.22 1330.23L2570.52 1355.23L2570.52 1405.23L2527.22 1430.23L2483.91 1405.23L2483.91 1355.23zM2570.52 1405.23L2613.82 1430.23L2613.82 1480.23L2570.52 1505.23L2527.22 1480.23L2527.22 1430.23z" stroke="rgba(102, 102, 102, 0.93)" stroke-width="2"></path></g><defs><mask id="SvgjsMask1037"><rect width="2560" height="1440" fill="#ffffff"></rect></mask></defs></svg>