<svg xmlns="http://www.w3.org/2000/svg" version="1.1" xmlns:xlink="http://www.w3.org/1999/xlink" xmlns:svgjs="http://svgjs.dev/svgjs" width="2560" height="1440" preserveAspectRatio="none" viewBox="0 0 2560 1440"><g mask="url(&quot;#SvgjsMask1097&quot;)" fill="none"><rect width="2560" height="1440" x="0" y="0" fill="rgba(0, 0, 0, 1)"></rect><path d="M58 1438L57 2019" stroke-width="8" stroke="url(&quot;#SvgjsLinearGradient1098&quot;)" stroke-linecap="round" class="Up"></path><path d="M1409 1412L1408 1850" stroke-width="8" stroke="url(&quot;#SvgjsLinearGradient1098&quot;)" stroke-linecap="round" class="Up"></path><path d="M819 850L818 1288" stroke-width="8" stroke="url(&quot;#SvgjsLinearGradient1099&quot;)" stroke-linecap="round" class="Down"></path><path d="M1905 1035L1904 428" stroke-width="10" stroke="url(&quot;#SvgjsLinearGradient1098&quot;)" stroke-linecap="round" class="Up"></path><path d="M1294 420L1293 800" stroke-width="6" stroke="url(&quot;#SvgjsLinearGradient1099&quot;)" stroke-linecap="round" class="Down"></path><path d="M2332 394L2331 -234" stroke-width="8" stroke="url(&quot;#SvgjsLinearGradient1099&quot;)" stroke-linecap="round" class="Down"></path><path d="M858 197L857 -862" stroke-width="10" stroke="url(&quot;#SvgjsLinearGradient1098&quot;)" stroke-linecap="round" class="Up"></path><path d="M2302 111L2301 -853" stroke-width="8" stroke="url(&quot;#SvgjsLinearGradient1099&quot;)" stroke-linecap="round" class="Down"></path><path d="M1615 1142L1614 660" stroke-width="6" stroke="url(&quot;#SvgjsLinearGradient1098&quot;)" stroke-linecap="round" class="Up"></path><path d="M2114 1015L2113 437" stroke-width="6" stroke="url(&quot;#SvgjsLinearGradient1099&quot;)" stroke-linecap="round" class="Down"></path><path d="M199 33L198 661" stroke-width="10" stroke="url(&quot;#SvgjsLinearGradient1098&quot;)" stroke-linecap="round" class="Up"></path><path d="M951 381L950 1461" stroke-width="6" stroke="url(&quot;#SvgjsLinearGradient1099&quot;)" stroke-linecap="round" class="Down"></path><path d="M1644 19L1643 830" stroke-width="8" stroke="url(&quot;#SvgjsLinearGradient1099&quot;)" stroke-linecap="round" class="Down"></path><path d="M1510 1380L1509 760" stroke-width="8" stroke="url(&quot;#SvgjsLinearGradient1099&quot;)" stroke-linecap="round" class="Down"></path><path d="M1357 1341L1356 2191" stroke-width="6" stroke="url(&quot;#SvgjsLinearGradient1098&quot;)" stroke-linecap="round" class="Up"></path><path d="M1922 1362L1921 1971" stroke-width="6" stroke="url(&quot;#SvgjsLinearGradient1098&quot;)" stroke-linecap="round" class="Up"></path><path d="M2133 734L2132 226" stroke-width="6" stroke="url(&quot;#SvgjsLinearGradient1098&quot;)" stroke-linecap="round" class="Up"></path><path d="M531 412L530 1363" stroke-width="8" stroke="url(&quot;#SvgjsLinearGradient1098&quot;)" stroke-linecap="round" class="Up"></path><path d="M1049 243L1048 -768" stroke-width="6" stroke="url(&quot;#SvgjsLinearGradient1099&quot;)" stroke-linecap="round" class="Down"></path><path d="M353 1261L352 343" stroke-width="8" stroke="url(&quot;#SvgjsLinearGradient1098&quot;)" stroke-linecap="round" class="Up"></path><path d="M1100 22L1099 1024" stroke-width="8" stroke="url(&quot;#SvgjsLinearGradient1098&quot;)" stroke-linecap="round" class="Up"></path><path d="M1838 787L1837 315" stroke-width="8" stroke="url(&quot;#SvgjsLinearGradient1099&quot;)" stroke-linecap="round" class="Down"></path><path d="M2129 1226L2128 1784" stroke-width="10" stroke="url(&quot;#SvgjsLinearGradient1098&quot;)" stroke-linecap="round" class="Up"></path><path d="M375 895L374 1905" stroke-width="6" stroke="url(&quot;#SvgjsLinearGradient1099&quot;)" stroke-linecap="round" class="Down"></path><path d="M966 406L965 -418" stroke-width="8" stroke="url(&quot;#SvgjsLinearGradient1099&quot;)" stroke-linecap="round" class="Down"></path><path d="M2059 239L2058 1116" stroke-width="8" stroke="url(&quot;#SvgjsLinearGradient1098&quot;)" stroke-linecap="round" class="Up"></path><path d="M211 1255L210 437" stroke-width="8" stroke="url(&quot;#SvgjsLinearGradient1098&quot;)" stroke-linecap="round" class="Up"></path><path d="M734 906L733 1312" stroke-width="8" stroke="url(&quot;#SvgjsLinearGradient1099&quot;)" stroke-linecap="round" class="Down"></path><path d="M1256 1356L1255 372" stroke-width="6" stroke="url(&quot;#SvgjsLinearGradient1099&quot;)" stroke-linecap="round" class="Down"></path><path d="M615 861L614 1699" stroke-width="10" stroke="url(&quot;#SvgjsLinearGradient1098&quot;)" stroke-linecap="round" class="Up"></path><path d="M731 93L730 1056" stroke-width="6" stroke="url(&quot;#SvgjsLinearGradient1099&quot;)" stroke-linecap="round" class="Down"></path><path d="M810 1191L809 290" stroke-width="6" stroke="url(&quot;#SvgjsLinearGradient1099&quot;)" stroke-linecap="round" class="Down"></path><path d="M1904 1345L1903 640" stroke-width="8" stroke="url(&quot;#SvgjsLinearGradient1098&quot;)" stroke-linecap="round" class="Up"></path><path d="M2507 510L2506 -546" stroke-width="6" stroke="url(&quot;#SvgjsLinearGradient1099&quot;)" stroke-linecap="round" class="Down"></path><path d="M2168 1193L2167 1994" stroke-width="10" stroke="url(&quot;#SvgjsLinearGradient1098&quot;)" stroke-linecap="round" class="Up"></path><path d="M2356 814L2355 1764" stroke-width="10" stroke="url(&quot;#SvgjsLinearGradient1099&quot;)" stroke-linecap="round" class="Down"></path><path d="M289 218L288 -230" stroke-width="8" stroke="url(&quot;#SvgjsLinearGradient1099&quot;)" stroke-linecap="round" class="Down"></path><path d="M223 919L222 481" stroke-width="8" stroke="url(&quot;#SvgjsLinearGradient1099&quot;)" stroke-linecap="round" class="Down"></path><path d="M2349 232L2348 -259" stroke-width="10" stroke="url(&quot;#SvgjsLinearGradient1098&quot;)" stroke-linecap="round" class="Up"></path><path d="M1322 517L1321 -452" stroke-width="6" stroke="url(&quot;#SvgjsLinearGradient1099&quot;)" stroke-linecap="round" class="Down"></path><path d="M2354 746L2353 1318" stroke-width="8" stroke="url(&quot;#SvgjsLinearGradient1099&quot;)" stroke-linecap="round" class="Down"></path><path d="M2238 677L2237 125" stroke-width="10" stroke="url(&quot;#SvgjsLinearGradient1098&quot;)" stroke-linecap="round" class="Up"></path><path d="M2539 868L2538 -36" stroke-width="6" stroke="url(&quot;#SvgjsLinearGradient1098&quot;)" stroke-linecap="round" class="Up"></path><path d="M1309 1093L1308 639" stroke-width="6" stroke="url(&quot;#SvgjsLinearGradient1098&quot;)" stroke-linecap="round" class="Up"></path><path d="M1551 1225L1550 2069" stroke-width="10" stroke="url(&quot;#SvgjsLinearGradient1098&quot;)" stroke-linecap="round" class="Up"></path><path d="M764 1378L763 1910" stroke-width="6" stroke="url(&quot;#SvgjsLinearGradient1099&quot;)" stroke-linecap="round" class="Down"></path><path d="M2305 749L2304 -243" stroke-width="6" stroke="url(&quot;#SvgjsLinearGradient1098&quot;)" stroke-linecap="round" class="Up"></path><path d="M2347 779L2346 1473" stroke-width="10" stroke="url(&quot;#SvgjsLinearGradient1099&quot;)" stroke-linecap="round" class="Down"></path><path d="M1750 1084L1749 1597" stroke-width="10" stroke="url(&quot;#SvgjsLinearGradient1098&quot;)" stroke-linecap="round" class="Up"></path><path d="M1688 1368L1687 630" stroke-width="6" stroke="url(&quot;#SvgjsLinearGradient1099&quot;)" stroke-linecap="round" class="Down"></path><path d="M1853 1226L1852 1761" stroke-width="6" stroke="url(&quot;#SvgjsLinearGradient1098&quot;)" stroke-linecap="round" class="Up"></path><path d="M179 1047L178 2114" stroke-width="10" stroke="url(&quot;#SvgjsLinearGradient1099&quot;)" stroke-linecap="round" class="Down"></path><path d="M1542 343L1541 1107" stroke-width="6" stroke="url(&quot;#SvgjsLinearGradient1099&quot;)" stroke-linecap="round" class="Down"></path><path d="M1970 91L1969 795" stroke-width="10" stroke="url(&quot;#SvgjsLinearGradient1098&quot;)" stroke-linecap="round" class="Up"></path><path d="M567 1249L566 260" stroke-width="10" stroke="url(&quot;#SvgjsLinearGradient1098&quot;)" stroke-linecap="round" class="Up"></path><path d="M1676 624L1675 1133" stroke-width="6" stroke="url(&quot;#SvgjsLinearGradient1098&quot;)" stroke-linecap="round" class="Up"></path><path d="M1000 912L999 419" stroke-width="8" stroke="url(&quot;#SvgjsLinearGradient1099&quot;)" stroke-linecap="round" class="Down"></path><path d="M1568 1298L1567 413" stroke-width="6" stroke="url(&quot;#SvgjsLinearGradient1099&quot;)" stroke-linecap="round" class="Down"></path><path d="M2347 1386L2346 629" stroke-width="10" stroke="url(&quot;#SvgjsLinearGradient1099&quot;)" stroke-linecap="round" class="Down"></path><path d="M138 33L137 -809" stroke-width="8" stroke="url(&quot;#SvgjsLinearGradient1098&quot;)" stroke-linecap="round" class="Up"></path><path d="M521 41L520 -326" stroke-width="10" stroke="url(&quot;#SvgjsLinearGradient1098&quot;)" stroke-linecap="round" class="Up"></path><path d="M1917 678L1916 1685" stroke-width="6" stroke="url(&quot;#SvgjsLinearGradient1099&quot;)" stroke-linecap="round" class="Down"></path><path d="M512 849L511 184" stroke-width="8" stroke="url(&quot;#SvgjsLinearGradient1098&quot;)" stroke-linecap="round" class="Up"></path><path d="M1708 316L1707 774" stroke-width="8" stroke="url(&quot;#SvgjsLinearGradient1099&quot;)" stroke-linecap="round" class="Down"></path></g><defs><mask id="SvgjsMask1097"><rect width="2560" height="1440" fill="#ffffff"></rect></mask><linearGradient x1="0%" y1="100%" x2="0%" y2="0%" id="SvgjsLinearGradient1098"><stop stop-color="rgba(31, 58, 152, 0)" offset="0"></stop><stop stop-color="rgba(31, 58, 152, 1)" offset="1"></stop></linearGradient><linearGradient x1="0%" y1="0%" x2="0%" y2="100%" id="SvgjsLinearGradient1099"><stop stop-color="rgba(31, 58, 152, 0)" offset="0"></stop><stop stop-color="rgba(31, 58, 152, 1)" offset="1"></stop></linearGradient></defs></svg>