<svg xmlns="http://www.w3.org/2000/svg" version="1.1" xmlns:xlink="http://www.w3.org/1999/xlink" xmlns:svgjs="http://svgjs.dev/svgjs" width="2560" height="1440" preserveAspectRatio="none" viewBox="0 0 2560 1440"><g mask="url(&quot;#SvgjsMask1146&quot;)" fill="none"><rect width="2560" height="1440" x="0" y="0" fill="rgba(0, 0, 0, 1)"></rect><path d="M1582 327L1970 -61" stroke-width="10" stroke="url(&quot;#SvgjsLinearGradient1147&quot;)" stroke-linecap="round" class="TopRight"></path><path d="M744 1151L1493 402" stroke-width="8" stroke="url(&quot;#SvgjsLinearGradient1148&quot;)" stroke-linecap="round" class="BottomLeft"></path><path d="M129 1081L-259 1469" stroke-width="6" stroke="url(&quot;#SvgjsLinearGradient1149&quot;)" stroke-linecap="round" class="TopRight"></path><path d="M2129 197L1767 559" stroke-width="8" stroke="url(&quot;#SvgjsLinearGradient1150&quot;)" stroke-linecap="round" class="BottomLeft"></path><path d="M1902 744L1185 1461" stroke-width="10" stroke="url(&quot;#SvgjsLinearGradient1151&quot;)" stroke-linecap="round" class="TopRight"></path><path d="M1787 93L2351 -471" stroke-width="10" stroke="url(&quot;#SvgjsLinearGradient1149&quot;)" stroke-linecap="round" class="TopRight"></path><path d="M1678 848L2460 66" stroke-width="6" stroke="url(&quot;#SvgjsLinearGradient1152&quot;)" stroke-linecap="round" class="BottomLeft"></path><path d="M2086 613L1010 1689" stroke-width="6" stroke="url(&quot;#SvgjsLinearGradient1148&quot;)" stroke-linecap="round" class="BottomLeft"></path><path d="M2540 849L3041 348" stroke-width="6" stroke="url(&quot;#SvgjsLinearGradient1148&quot;)" stroke-linecap="round" class="BottomLeft"></path><path d="M1140 1046L257 1929" stroke-width="6" stroke="url(&quot;#SvgjsLinearGradient1152&quot;)" stroke-linecap="round" class="BottomLeft"></path><path d="M1447 851L983 1315" stroke-width="8" stroke="url(&quot;#SvgjsLinearGradient1148&quot;)" stroke-linecap="round" class="BottomLeft"></path><path d="M2282 1017L2978 321" stroke-width="6" stroke="url(&quot;#SvgjsLinearGradient1150&quot;)" stroke-linecap="round" class="BottomLeft"></path><path d="M57 332L-976 1365" stroke-width="10" stroke="url(&quot;#SvgjsLinearGradient1149&quot;)" stroke-linecap="round" class="TopRight"></path><path d="M1183 993L1947 229" stroke-width="8" stroke="url(&quot;#SvgjsLinearGradient1151&quot;)" stroke-linecap="round" class="TopRight"></path><path d="M1613 799L596 1816" stroke-width="10" stroke="url(&quot;#SvgjsLinearGradient1150&quot;)" stroke-linecap="round" class="BottomLeft"></path><path d="M1336 512L1752 96" stroke-width="6" stroke="url(&quot;#SvgjsLinearGradient1149&quot;)" stroke-linecap="round" class="TopRight"></path><path d="M132 383L-499 1014" stroke-width="8" stroke="url(&quot;#SvgjsLinearGradient1148&quot;)" stroke-linecap="round" class="BottomLeft"></path><path d="M2126 309L2773 -338" stroke-width="8" stroke="url(&quot;#SvgjsLinearGradient1149&quot;)" stroke-linecap="round" class="TopRight"></path><path d="M33 1031L849 215" stroke-width="10" stroke="url(&quot;#SvgjsLinearGradient1150&quot;)" stroke-linecap="round" class="BottomLeft"></path><path d="M966 1346L1373 939" stroke-width="8" stroke="url(&quot;#SvgjsLinearGradient1147&quot;)" stroke-linecap="round" class="TopRight"></path><path d="M2493 331L1510 1314" stroke-width="6" stroke="url(&quot;#SvgjsLinearGradient1148&quot;)" stroke-linecap="round" class="BottomLeft"></path><path d="M1734 1013L731 2016" stroke-width="6" stroke="url(&quot;#SvgjsLinearGradient1148&quot;)" stroke-linecap="round" class="BottomLeft"></path><path d="M1556 716L2281 -9" stroke-width="6" stroke="url(&quot;#SvgjsLinearGradient1150&quot;)" stroke-linecap="round" class="BottomLeft"></path><path d="M1617 305L2302 -380" stroke-width="6" stroke="url(&quot;#SvgjsLinearGradient1148&quot;)" stroke-linecap="round" class="BottomLeft"></path><path d="M2333 134L1307 1160" stroke-width="10" stroke="url(&quot;#SvgjsLinearGradient1148&quot;)" stroke-linecap="round" class="BottomLeft"></path><path d="M1300 186L822 664" stroke-width="6" stroke="url(&quot;#SvgjsLinearGradient1150&quot;)" stroke-linecap="round" class="BottomLeft"></path><path d="M1783 477L775 1485" stroke-width="6" stroke="url(&quot;#SvgjsLinearGradient1152&quot;)" stroke-linecap="round" class="BottomLeft"></path><path d="M66 1119L-550 1735" stroke-width="8" stroke="url(&quot;#SvgjsLinearGradient1148&quot;)" stroke-linecap="round" class="BottomLeft"></path><path d="M258 508L1210 -444" stroke-width="6" stroke="url(&quot;#SvgjsLinearGradient1149&quot;)" stroke-linecap="round" class="TopRight"></path><path d="M1768 693L2602 -141" stroke-width="6" stroke="url(&quot;#SvgjsLinearGradient1147&quot;)" stroke-linecap="round" class="TopRight"></path><path d="M1451 405L773 1083" stroke-width="10" stroke="url(&quot;#SvgjsLinearGradient1148&quot;)" stroke-linecap="round" class="BottomLeft"></path><path d="M4 1314L-905 2223" stroke-width="6" stroke="url(&quot;#SvgjsLinearGradient1151&quot;)" stroke-linecap="round" class="TopRight"></path><path d="M2161 982L1461 1682" stroke-width="6" stroke="url(&quot;#SvgjsLinearGradient1150&quot;)" stroke-linecap="round" class="BottomLeft"></path><path d="M2039 522L3005 -444" stroke-width="8" stroke="url(&quot;#SvgjsLinearGradient1150&quot;)" stroke-linecap="round" class="BottomLeft"></path><path d="M1309 354L1680 -17" stroke-width="10" stroke="url(&quot;#SvgjsLinearGradient1149&quot;)" stroke-linecap="round" class="TopRight"></path><path d="M1348 1138L911 1575" stroke-width="10" stroke="url(&quot;#SvgjsLinearGradient1152&quot;)" stroke-linecap="round" class="BottomLeft"></path><path d="M170 245L988 -573" stroke-width="6" stroke="url(&quot;#SvgjsLinearGradient1151&quot;)" stroke-linecap="round" class="TopRight"></path><path d="M1321 1091L2321 91" stroke-width="8" stroke="url(&quot;#SvgjsLinearGradient1147&quot;)" stroke-linecap="round" class="TopRight"></path><path d="M953 1371L53 2271" stroke-width="10" stroke="url(&quot;#SvgjsLinearGradient1148&quot;)" stroke-linecap="round" class="BottomLeft"></path><path d="M359 216L944 -369" stroke-width="10" stroke="url(&quot;#SvgjsLinearGradient1151&quot;)" stroke-linecap="round" class="TopRight"></path><path d="M1719 1157L2141 735" stroke-width="10" stroke="url(&quot;#SvgjsLinearGradient1148&quot;)" stroke-linecap="round" class="BottomLeft"></path><path d="M1839 957L2683 113" stroke-width="10" stroke="url(&quot;#SvgjsLinearGradient1149&quot;)" stroke-linecap="round" class="TopRight"></path><path d="M1621 215L2558 -722" stroke-width="10" stroke="url(&quot;#SvgjsLinearGradient1149&quot;)" stroke-linecap="round" class="TopRight"></path><path d="M1779 935L1129 1585" stroke-width="6" stroke="url(&quot;#SvgjsLinearGradient1147&quot;)" stroke-linecap="round" class="TopRight"></path><path d="M1357 326L1987 -304" stroke-width="10" stroke="url(&quot;#SvgjsLinearGradient1151&quot;)" stroke-linecap="round" class="TopRight"></path><path d="M856 970L282 1544" stroke-width="8" stroke="url(&quot;#SvgjsLinearGradient1147&quot;)" stroke-linecap="round" class="TopRight"></path><path d="M2247 643L1598 1292" stroke-width="10" stroke="url(&quot;#SvgjsLinearGradient1151&quot;)" stroke-linecap="round" class="TopRight"></path><path d="M174 609L-337 1120" stroke-width="10" stroke="url(&quot;#SvgjsLinearGradient1147&quot;)" stroke-linecap="round" class="TopRight"></path><path d="M2285 812L1416 1681" stroke-width="10" stroke="url(&quot;#SvgjsLinearGradient1148&quot;)" stroke-linecap="round" class="BottomLeft"></path><path d="M1561 1385L953 1993" stroke-width="8" stroke="url(&quot;#SvgjsLinearGradient1149&quot;)" stroke-linecap="round" class="TopRight"></path><path d="M1760 771L2189 342" stroke-width="8" stroke="url(&quot;#SvgjsLinearGradient1152&quot;)" stroke-linecap="round" class="BottomLeft"></path><path d="M2379 704L1734 1349" stroke-width="10" stroke="url(&quot;#SvgjsLinearGradient1152&quot;)" stroke-linecap="round" class="BottomLeft"></path><path d="M538 553L128 963" stroke-width="8" stroke="url(&quot;#SvgjsLinearGradient1152&quot;)" stroke-linecap="round" class="BottomLeft"></path><path d="M967 1242L120 2089" stroke-width="8" stroke="url(&quot;#SvgjsLinearGradient1151&quot;)" stroke-linecap="round" class="TopRight"></path><path d="M51 64L828 -713" stroke-width="8" stroke="url(&quot;#SvgjsLinearGradient1149&quot;)" stroke-linecap="round" class="TopRight"></path><path d="M621 314L1454 -519" stroke-width="10" stroke="url(&quot;#SvgjsLinearGradient1152&quot;)" stroke-linecap="round" class="BottomLeft"></path><path d="M420 1229L-355 2004" stroke-width="8" stroke="url(&quot;#SvgjsLinearGradient1150&quot;)" stroke-linecap="round" class="BottomLeft"></path><path d="M590 863L1505 -52" stroke-width="8" stroke="url(&quot;#SvgjsLinearGradient1147&quot;)" stroke-linecap="round" class="TopRight"></path><path d="M2451 337L1654 1134" stroke-width="10" stroke="url(&quot;#SvgjsLinearGradient1147&quot;)" stroke-linecap="round" class="TopRight"></path><path d="M2102 879L1517 1464" stroke-width="10" stroke="url(&quot;#SvgjsLinearGradient1152&quot;)" stroke-linecap="round" class="BottomLeft"></path><path d="M1607 244L813 1038" stroke-width="8" stroke="url(&quot;#SvgjsLinearGradient1151&quot;)" stroke-linecap="round" class="TopRight"></path><path d="M1123 827L1750 200" stroke-width="10" stroke="url(&quot;#SvgjsLinearGradient1150&quot;)" stroke-linecap="round" class="BottomLeft"></path><path d="M1478 4L685 797" stroke-width="6" stroke="url(&quot;#SvgjsLinearGradient1150&quot;)" stroke-linecap="round" class="BottomLeft"></path><path d="M1269 305L2330 -756" stroke-width="10" stroke="url(&quot;#SvgjsLinearGradient1151&quot;)" stroke-linecap="round" class="TopRight"></path><path d="M1686 774L853 1607" stroke-width="10" stroke="url(&quot;#SvgjsLinearGradient1151&quot;)" stroke-linecap="round" class="TopRight"></path><path d="M100 380L519 -39" stroke-width="6" stroke="url(&quot;#SvgjsLinearGradient1147&quot;)" stroke-linecap="round" class="TopRight"></path><path d="M982 1234L1821 395" stroke-width="8" stroke="url(&quot;#SvgjsLinearGradient1152&quot;)" stroke-linecap="round" class="BottomLeft"></path><path d="M1992 707L2723 -24" stroke-width="8" stroke="url(&quot;#SvgjsLinearGradient1151&quot;)" stroke-linecap="round" class="TopRight"></path><path d="M2205 1138L1639 1704" stroke-width="8" stroke="url(&quot;#SvgjsLinearGradient1152&quot;)" stroke-linecap="round" class="BottomLeft"></path><path d="M1807 1150L2205 752" stroke-width="8" stroke="url(&quot;#SvgjsLinearGradient1147&quot;)" stroke-linecap="round" class="TopRight"></path><path d="M1596 83L1084 595" stroke-width="6" stroke="url(&quot;#SvgjsLinearGradient1151&quot;)" stroke-linecap="round" class="TopRight"></path><path d="M889 286L1452 -277" stroke-width="10" stroke="url(&quot;#SvgjsLinearGradient1152&quot;)" stroke-linecap="round" class="BottomLeft"></path><path d="M2419 639L1340 1718" stroke-width="10" stroke="url(&quot;#SvgjsLinearGradient1147&quot;)" stroke-linecap="round" class="TopRight"></path><path d="M1706 987L848 1845" stroke-width="10" stroke="url(&quot;#SvgjsLinearGradient1151&quot;)" stroke-linecap="round" class="TopRight"></path></g><defs><mask id="SvgjsMask1146"><rect width="2560" height="1440" fill="#ffffff"></rect></mask><linearGradient x1="0%" y1="100%" x2="100%" y2="0%" id="SvgjsLinearGradient1147"><stop stop-color="rgba(203, 203, 203, 0)" offset="0"></stop><stop stop-color="rgba(203, 203, 203, 1)" offset="1"></stop></linearGradient><linearGradient x1="100%" y1="0%" x2="0%" y2="100%" id="SvgjsLinearGradient1148"><stop stop-color="rgba(203, 203, 203, 0)" offset="0"></stop><stop stop-color="rgba(203, 203, 203, 1)" offset="1"></stop></linearGradient><linearGradient x1="0%" y1="100%" x2="100%" y2="0%" id="SvgjsLinearGradient1149"><stop stop-color="rgba(99, 99, 99, 0)" offset="0"></stop><stop stop-color="rgba(99, 99, 99, 1)" offset="1"></stop></linearGradient><linearGradient x1="100%" y1="0%" x2="0%" y2="100%" id="SvgjsLinearGradient1150"><stop stop-color="rgba(99, 99, 99, 0)" offset="0"></stop><stop stop-color="rgba(99, 99, 99, 1)" offset="1"></stop></linearGradient><linearGradient x1="0%" y1="100%" x2="100%" y2="0%" id="SvgjsLinearGradient1151"><stop stop-color="rgba(255, 255, 255, 0)" offset="0"></stop><stop stop-color="rgba(255, 255, 255, 1)" offset="1"></stop></linearGradient><linearGradient x1="100%" y1="0%" x2="0%" y2="100%" id="SvgjsLinearGradient1152"><stop stop-color="rgba(255, 255, 255, 0)" offset="0"></stop><stop stop-color="rgba(255, 255, 255, 1)" offset="1"></stop></linearGradient></defs></svg>